<?xml version="1.0" encoding="utf-8"?>
<!-- Generator: Adobe Illustrator 27.2.0, SVG Export Plug-In . SVG Version: 6.00 Build 0)  -->
<svg version="1.1" id="Layer_1" xmlns="http://www.w3.org/2000/svg" xmlns:xlink="http://www.w3.org/1999/xlink" x="0px" y="0px"
	 viewBox="0 0 742.2 269.1" style="enable-background:new 0 0 742.2 269.1;" xml:space="preserve">
<style type="text/css">
	.st0{fill:#AEAEAE;}
	.st1{fill:#00C0E4;}
	.st2{fill:url(#SVGID_1_);}
	.st3{fill:url(#SVGID_00000077297059833475824240000005377657655573624479_);}
	.st4{fill:url(#SVGID_00000002361606951986581010000003482082619740250793_);}
	.st5{fill:url(#SVGID_00000139251919190195210490000003164968416474677897_);}
</style>
<path class="st0" d="M251,60.6c0-4.9-0.3-9.7-1.1-14.5c-4.1-26.3-16.6-35.7-38.5-30.6c-56.7,13.3-113.5,26.6-170.2,40
	C26,59.1,17.1,69.7,17,85c-0.1,5.9,0.1,47.8,0.1,55.7c0,0-0.3,14.8-0.1,22.3c0,0.9,0,1.7,0.1,2.5c0,0.2,0,0.3,0,0.5c0,0,0,0,0,0
	l0,0.6c1.2,12.4,8.6,19.8,21.9,22.1c26,4.4,52,8.6,79.5,13.1c-0.3,4.7-0.5,8.3-0.8,12c-23.6-1-40.9,2.4-43.8,8.3
	c11.2-3.2,25.2-3.4,44.2-1.8c24.9,2.1,49.9,11.3,59.9,18.6c1.1-1.2,1.7-2.4,1.7-3.7c0-7.3-23.5-17-48.6-20.3
	c-2.3-4.1-1.8-5.6-0.7-11.4c5.2,0.6,9.9,1.2,14.6,1.8c23.6,3.1,47,7.4,70.7,9.1c19.8,1.4,35.2-15.4,35.2-35.1
	C251,139.7,251.2,100.2,251,60.6z M230.3,112.9C230.3,112.9,230.2,112.9,230.3,112.9c-0.1,23,0.1,45.9-0.1,68.9
	c-0.1,16.8-8.3,24-24.7,21.6C150,195.2,94.6,186.5,39,178.6c-10.3-1.5-14.1-6.6-14.5-15.3c-0.2-11.2,0-71.1,0-76.2
	c-0.1-12.1,5.9-18.3,17-20.9c54.6-12.8,109.2-25.7,163.8-38.5c20.2-4.7,24.9-0.8,24.9,20.2C230.3,69.6,230.3,91.2,230.3,112.9z"/>
<polygon class="st1" points="165.9,155.2 113.3,149.9 113.1,163.2 165.6,168.5 "/>
<polygon class="st1" points="103.8,112 103.8,112 75.8,78 67,86.6 94.9,120.5 65.9,148.7 74.3,159 112.2,122.3 "/>
<g>
	<linearGradient id="SVGID_1_" gradientUnits="userSpaceOnUse" x1="180.3962" y1="196.0708" x2="547.556" y2="30.3527">
		<stop  offset="0" style="stop-color:#00C0E4"/>
		<stop  offset="1" style="stop-color:#2D95D2"/>
	</linearGradient>
	<path class="st2" d="M296.1,189.8V81.2h35.1l1.1,10.1c4.7-2.9,10.6-5.5,17.6-7.9c7-2.4,14.1-3.9,21.1-4.5v27.7
		c-4,0.5-8.4,1.2-13.2,2.2c-4.8,1-9.4,2.2-13.8,3.6c-4.4,1.4-8.1,2.8-11.1,4.4v73.1H296.1z"/>
	
		<linearGradient id="SVGID_00000136393713646053981370000016047151656284819598_" gradientUnits="userSpaceOnUse" x1="201.1656" y1="242.0868" x2="568.3254" y2="76.3688">
		<stop  offset="0" style="stop-color:#00C0E4"/>
		<stop  offset="1" style="stop-color:#2D95D2"/>
	</linearGradient>
	<path style="fill:url(#SVGID_00000136393713646053981370000016047151656284819598_);" d="M437,192.1c-20.9,0-36.4-4.8-46.3-14.6
		c-9.9-9.7-14.9-23.7-14.9-42.1c0-18.2,5-32.2,15-41.9c10-9.8,25.4-14.7,46.2-14.7c20.9,0,36.4,4.9,46.4,14.7
		c10,9.8,15,23.8,15,41.9c0,18.3-5,32.4-14.9,42.1C473.6,187.3,458.1,192.1,437,192.1z M437,163.3c8.6,0,14.7-2.1,18.3-6.4
		c3.7-4.3,5.5-11.4,5.5-21.3c0-9.9-1.8-17-5.5-21.3c-3.7-4.3-9.8-6.4-18.3-6.4c-8.4,0-14.4,2.1-18.1,6.4c-3.7,4.3-5.5,11.4-5.5,21.3
		c0,9.9,1.8,17,5.5,21.3C422.6,161.1,428.6,163.3,437,163.3z"/>
	
		<linearGradient id="SVGID_00000133489325398150180810000001258475328528838833_" gradientUnits="userSpaceOnUse" x1="224.3197" y1="293.3864" x2="591.4795" y2="127.6683">
		<stop  offset="0" style="stop-color:#00C0E4"/>
		<stop  offset="1" style="stop-color:#2D95D2"/>
	</linearGradient>
	<path style="fill:url(#SVGID_00000133489325398150180810000001258475328528838833_);" d="M573.8,192.1c-20.9,0-36.4-4.8-46.3-14.6
		c-9.9-9.7-14.9-23.7-14.9-42.1c0-18.2,5-32.2,15-41.9c10-9.8,25.4-14.7,46.2-14.7c20.9,0,36.4,4.9,46.4,14.7
		c10,9.8,15,23.8,15,41.9c0,18.3-5,32.4-14.9,42.1C610.4,187.3,594.9,192.1,573.8,192.1z M573.8,163.3c8.6,0,14.7-2.1,18.3-6.4
		c3.7-4.3,5.5-11.4,5.5-21.3c0-9.9-1.8-17-5.5-21.3c-3.7-4.3-9.8-6.4-18.3-6.4c-8.4,0-14.4,2.1-18.1,6.4c-3.7,4.3-5.5,11.4-5.5,21.3
		c0,9.9,1.8,17,5.5,21.3C559.4,161.1,565.4,163.3,573.8,163.3z"/>
	
		<linearGradient id="SVGID_00000102516156929011274720000007536276002960430221_" gradientUnits="userSpaceOnUse" x1="239.6877" y1="327.4353" x2="606.8475" y2="161.7172">
		<stop  offset="0" style="stop-color:#00C0E4"/>
		<stop  offset="1" style="stop-color:#2D95D2"/>
	</linearGradient>
	<path style="fill:url(#SVGID_00000102516156929011274720000007536276002960430221_);" d="M698.7,192.1c-13.4,0-23.3-3.4-29.7-10.3
		c-6.3-6.9-9.5-16.3-9.5-28.4v-44.2h-14.7v-28h14.7V58.5l36.9-9.9v32.5h26.4l-1.6,28h-24.8v41.7c0,5.2,1.3,8.8,3.9,10.9
		c2.6,2.1,6.5,3.1,11.7,3.1c4.4,0,8.9-0.8,13.5-2.3v25C718.4,190.6,709.4,192.1,698.7,192.1z"/>
</g>
<g>
	<path class="st0" d="M298.8,50.8V19.9h6.5v25.9h15.2v5H298.8z"/>
	<path class="st0" d="M324.5,50.8V32.8h-3.4l0.6-4.8h9.3v22.7H324.5z M324,23.8v-5.1h7.1v5.1H324z"/>
	<path class="st0" d="M336.5,50.8V28h6l0.2,2.2c0.9-0.7,2.1-1.3,3.5-1.8c1.4-0.5,2.9-0.8,4.5-0.8c3,0,5.2,0.7,6.6,2.1
		c1.4,1.4,2.1,3.6,2.1,6.5v14.6h-6.5V36.5c0-1.5-0.3-2.6-0.9-3.3c-0.6-0.6-1.8-1-3.5-1c-1,0-2,0.2-3,0.7c-1,0.4-1.8,1-2.5,1.7v16.1
		H336.5z"/>
	<path class="st0" d="M366.8,62c-2,0-3.7-0.3-5.2-0.9v-4.5c0.5,0.2,1,0.3,1.5,0.4c0.5,0.1,1,0.1,1.4,0.1c1.3,0,2.3-0.3,2.8-0.8
		c0.6-0.5,0.9-1.4,0.9-2.5v-21h-3.4l0.6-4.8h9.3v26.4c0,2.2-0.6,4.1-1.9,5.4C371.4,61.3,369.5,62,366.8,62z M367.6,23.8v-5.1h7.1
		v5.1H367.6z"/>
	<path class="st0" d="M392.1,51.2c-3.9,0-7.1-1-9.4-3c-2.3-2-3.5-4.9-3.5-8.9c0-3.6,1-6.5,2.9-8.6c1.9-2.1,4.8-3.2,8.7-3.2
		c3.5,0,6.2,0.9,8.1,2.8c1.9,1.8,2.8,4.2,2.8,7.2v4.1h-16.5c0.4,1.8,1.2,3.1,2.5,3.7c1.3,0.7,3.2,1,5.6,1c1.2,0,2.5-0.1,3.7-0.3
		c1.3-0.2,2.3-0.5,3.2-0.9v4.6c-1.1,0.5-2.3,0.8-3.7,1.1C395.3,51.1,393.7,51.2,392.1,51.2z M385.2,37.7H396v-1.2
		c0-1.3-0.4-2.3-1.2-3.1c-0.8-0.8-2.1-1.1-3.9-1.1c-2.1,0-3.6,0.4-4.5,1.3C385.7,34.4,385.2,35.7,385.2,37.7z"/>
	<path class="st0" d="M407.4,50.8V33h-3.2v-5h3.2v-2.3c0-2.4,0.7-4.3,2-5.8c1.3-1.5,3.3-2.3,5.9-2.3c1.1,0,2,0.1,2.8,0.2
		c0.8,0.2,1.6,0.4,2.3,0.7V23c-0.5-0.2-0.9-0.3-1.4-0.4c-0.4-0.1-0.9-0.1-1.5-0.1c-1.4,0-2.3,0.2-2.9,0.7c-0.6,0.5-0.8,1.4-0.8,2.6
		V28h5.8l-0.3,5h-5.5v17.8H407.4z"/>
	<path class="st0" d="M433.7,51.2c-4.3,0-7.4-1-9.4-3.1c-2-2.1-3-5-3-8.8c0-3.8,1-6.7,3-8.8c2-2.1,5.1-3.1,9.3-3.1
		c4.3,0,7.4,1,9.4,3.1c2,2.1,3,5,3,8.8c0,3.8-1,6.7-3,8.8C441.1,50.2,438,51.2,433.7,51.2z M433.7,45.7c2.1,0,3.6-0.5,4.5-1.4
		c0.9-0.9,1.3-2.6,1.3-4.9c0-2.3-0.4-4-1.3-4.9c-0.9-0.9-2.4-1.4-4.5-1.4c-2,0-3.5,0.5-4.4,1.4c-0.9,0.9-1.3,2.6-1.3,4.9
		c0,2.3,0.4,4,1.3,4.9C430.2,45.3,431.7,45.7,433.7,45.7z"/>
	<path class="st0" d="M450.6,50.8V28h6l0.3,2.4c1-0.6,2.3-1.2,3.8-1.8c1.5-0.5,3-0.9,4.5-1.1v4.9c-0.9,0.1-1.8,0.3-2.8,0.6
		c-1,0.3-2,0.5-2.9,0.9c-0.9,0.3-1.7,0.7-2.4,1v15.9H450.6z"/>
	<path class="st0" d="M479.4,51.2c-3.9,0-7.1-1-9.4-3c-2.3-2-3.5-4.9-3.5-8.9c0-3.6,1-6.5,2.9-8.6c1.9-2.1,4.8-3.2,8.7-3.2
		c3.5,0,6.2,0.9,8.1,2.8c1.9,1.8,2.8,4.2,2.8,7.2v4.1h-16.5c0.4,1.8,1.2,3.1,2.5,3.7c1.3,0.7,3.2,1,5.6,1c1.2,0,2.5-0.1,3.7-0.3
		c1.3-0.2,2.3-0.5,3.2-0.9v4.6c-1.1,0.5-2.3,0.8-3.7,1.1C482.6,51.1,481.1,51.2,479.4,51.2z M472.6,37.7h10.8v-1.2
		c0-1.3-0.4-2.3-1.2-3.1c-0.8-0.8-2.1-1.1-3.9-1.1c-2.1,0-3.6,0.4-4.5,1.3C473,34.4,472.6,35.7,472.6,37.7z"/>
	<path class="st0" d="M493.5,50.8V28h6l0.2,2.2c0.9-0.7,2.1-1.3,3.5-1.8s2.9-0.8,4.5-0.8c3,0,5.2,0.7,6.6,2.1
		c1.4,1.4,2.1,3.6,2.1,6.5v14.6H510V36.5c0-1.5-0.3-2.6-0.9-3.3c-0.6-0.6-1.8-1-3.5-1c-1,0-2,0.2-3,0.7c-1,0.4-1.8,1-2.5,1.7v16.1
		H493.5z"/>
	<path class="st0" d="M523.8,50.8V32.8h-3.4L521,28h9.3v22.7H523.8z M523.3,23.8v-5.1h7.1v5.1H523.3z"/>
	<path class="st0" d="M535.8,50.8V28h6l0.2,2.2c0.9-0.7,2.1-1.3,3.5-1.8c1.4-0.5,2.9-0.8,4.5-0.8c3,0,5.2,0.7,6.6,2.1
		c1.4,1.4,2.1,3.6,2.1,6.5v14.6h-6.5V36.5c0-1.5-0.3-2.6-0.9-3.3c-0.6-0.6-1.8-1-3.5-1c-1,0-2,0.2-3,0.7c-1,0.4-1.8,1-2.5,1.7v16.1
		H535.8z"/>
	<path class="st0" d="M573.6,59.2c-1.7,0-3.4-0.1-5.2-0.3c-1.8-0.2-3.3-0.5-4.5-1v-4.8c1.3,0.4,2.8,0.7,4.5,1
		c1.7,0.2,3.3,0.4,4.8,0.4c2.2,0,3.8-0.1,4.8-0.4c1-0.2,1.5-0.7,1.5-1.3c0-0.5-0.2-0.9-0.6-1.1c-0.4-0.2-1.3-0.3-2.7-0.3H570
		c-4.1,0-6.1-1.5-6.1-4.5c0-0.9,0.3-1.8,0.8-2.5c0.5-0.8,1.3-1.4,2.4-1.8c-2.6-1.3-3.9-3.5-3.9-6.6c0-2.9,0.9-5.1,2.7-6.4
		c1.8-1.3,4.5-2,8.1-2c0.7,0,1.5,0.1,2.4,0.2c0.9,0.1,1.5,0.2,2,0.3h8.5l-0.1,4.1h-3.6c1,0.9,1.5,2.2,1.5,3.9c0,2.3-0.7,4.2-2.2,5.6
		c-1.5,1.4-3.6,2.1-6.5,2.1c-0.5,0-1,0-1.5-0.1c-0.5,0-0.9-0.1-1.4-0.2c-1,0.1-1.8,0.4-2.4,0.7c-0.7,0.3-1,0.8-1,1.3
		c0,0.7,0.7,1.1,2,1.1h6.4c2.3,0,4.1,0.5,5.3,1.6c1.2,1,1.9,2.6,1.9,4.5c0,2.2-1,3.9-3,5C580.3,58.7,577.4,59.2,573.6,59.2z
		 M574.1,40c1.9,0,3.3-0.3,4-1c0.8-0.7,1.1-1.8,1.1-3.3c0-1.6-0.4-2.7-1.1-3.4c-0.8-0.7-2.1-1.1-4-1.1c-1.8,0-3.1,0.3-3.9,1
		c-0.8,0.7-1.2,1.8-1.2,3.4c0,1.5,0.4,2.6,1.1,3.3C570.9,39.7,572.2,40,574.1,40z"/>
	<path class="st0" d="M602.3,51.2c-3.9,0-7.1-1-9.4-3c-2.3-2-3.5-4.9-3.5-8.9c0-3.6,1-6.5,2.9-8.6c1.9-2.1,4.8-3.2,8.7-3.2
		c3.5,0,6.2,0.9,8.1,2.8s2.8,4.2,2.8,7.2v4.1h-16.5c0.4,1.8,1.2,3.1,2.5,3.7c1.3,0.7,3.2,1,5.6,1c1.2,0,2.5-0.1,3.7-0.3
		c1.3-0.2,2.3-0.5,3.2-0.9v4.6c-1.1,0.5-2.3,0.8-3.7,1.1C605.5,51.1,604,51.2,602.3,51.2z M595.5,37.7h10.8v-1.2
		c0-1.3-0.4-2.3-1.2-3.1c-0.8-0.8-2.1-1.1-3.9-1.1c-2.1,0-3.6,0.4-4.5,1.3C595.9,34.4,595.5,35.7,595.5,37.7z"/>
	<path class="st0" d="M616.5,50.8V28h6l0.2,2.2c0.9-0.7,2.1-1.3,3.5-1.8c1.4-0.5,2.9-0.8,4.5-0.8c3,0,5.2,0.7,6.6,2.1
		c1.4,1.4,2.1,3.6,2.1,6.5v14.6h-6.5V36.5c0-1.5-0.3-2.6-0.9-3.3c-0.6-0.6-1.8-1-3.5-1c-1,0-2,0.2-3,0.7c-1,0.4-1.8,1-2.5,1.7v16.1
		H616.5z"/>
</g>
<g>
	<path class="st0" d="M298.8,237.3v-25.5h10c3.7,0,6.4,1,8.1,3c1.7,2,2.6,5.3,2.6,9.9c0,4.4-0.8,7.5-2.5,9.6c-1.7,2-4.4,3-8.2,3
		H298.8z M302.1,234.8h6.1c1.8,0,3.3-0.3,4.5-0.8c1.2-0.5,2.1-1.5,2.7-3c0.6-1.4,0.9-3.5,0.9-6.3c0-2.7-0.3-4.8-0.8-6.3
		c-0.5-1.5-1.4-2.6-2.6-3.1c-1.2-0.6-2.7-0.9-4.6-0.9h-6.1V234.8z"/>
	<path class="st0" d="M335.4,237.7c-1.2,0-2.3-0.2-3.3-0.6c-1-0.4-1.8-1-2.4-1.9c-0.6-0.8-0.9-1.9-0.9-3.1c0-1.7,0.6-3.1,1.7-4.2
		c1.1-1.1,3-1.6,5.5-1.6h6.5V225c0-1-0.1-1.8-0.4-2.5c-0.3-0.6-0.8-1-1.6-1.3c-0.8-0.3-1.9-0.4-3.4-0.4c-1.1,0-2.2,0.1-3.3,0.3
		c-1.1,0.2-2,0.4-3,0.8v-2.7c0.8-0.3,1.8-0.6,3-0.8c1.1-0.2,2.4-0.3,3.7-0.3c2.7,0,4.7,0.5,6,1.6c1.3,1.1,2,2.8,2,5.3v12.3h-2.7
		l-0.2-2.1c-0.8,0.8-1.8,1.5-3,1.9C338.6,237.5,337.1,237.7,335.4,237.7z M336.2,235c1.4,0,2.6-0.2,3.6-0.7c1.1-0.5,2-1.2,2.7-2
		v-3.6h-6.4c-1.5,0-2.5,0.3-3.2,0.8c-0.6,0.6-0.9,1.4-0.9,2.5c0,1.1,0.4,1.9,1.1,2.4C333.9,234.8,334.9,235,336.2,235z"/>
	<path class="st0" d="M363.8,237.7c-1.8,0-3.2-0.5-4.2-1.5s-1.4-2.4-1.4-4.1v-11h-2.8v-2.6h2.8v-4.6l3.2-1v5.6h5.2l-0.2,2.6h-5v10.8
		c0,1.1,0.3,1.9,0.8,2.4c0.5,0.5,1.4,0.7,2.7,0.7c0.7,0,1.4-0.1,2.3-0.4v2.5C366.2,237.5,365,237.7,363.8,237.7z"/>
	<path class="st0" d="M382.6,237.7c-1.2,0-2.3-0.2-3.3-0.6c-1-0.4-1.8-1-2.4-1.9c-0.6-0.8-0.9-1.9-0.9-3.1c0-1.7,0.6-3.1,1.7-4.2
		c1.1-1.1,3-1.6,5.5-1.6h6.5V225c0-1-0.1-1.8-0.4-2.5c-0.3-0.6-0.8-1-1.6-1.3c-0.8-0.3-1.9-0.4-3.4-0.4c-1.1,0-2.2,0.1-3.3,0.3
		c-1.1,0.2-2,0.4-3,0.8v-2.7c0.8-0.3,1.8-0.6,3-0.8c1.1-0.2,2.4-0.3,3.7-0.3c2.7,0,4.7,0.5,6,1.6c1.3,1.1,2,2.8,2,5.3v12.3h-2.7
		l-0.2-2.1c-0.8,0.8-1.8,1.5-3,1.9C385.8,237.5,384.4,237.7,382.6,237.7z M383.5,235c1.4,0,2.6-0.2,3.6-0.7c1.1-0.5,2-1.2,2.7-2
		v-3.6h-6.4c-1.5,0-2.5,0.3-3.2,0.8c-0.6,0.6-1,1.4-1,2.5c0,1.1,0.4,1.9,1.1,2.4C381.1,234.8,382.2,235,383.5,235z"/>
	<path class="st0" d="M427.1,237.7c-2.6,0-4.7-0.6-6.3-1.7c-1.6-1.2-2.4-2.7-2.4-4.7c0-1.8,0.6-3.3,1.7-4.6c1.1-1.3,2.6-2.4,4.6-3.4
		c-1-1-1.9-2-2.6-2.9c-0.7-0.9-1.1-2-1.1-3.2c0-1.6,0.5-2.9,1.6-4c1.1-1.1,2.6-1.6,4.6-1.6c2,0,3.5,0.5,4.5,1.5
		c1.1,1,1.6,2.4,1.6,4.1c0,1.4-0.4,2.6-1.1,3.6c-0.8,1-1.9,2-3.3,3l6.6,6.7c0.4-1,0.7-2.2,0.7-3.7v-0.6h2.6v0.6c0,1-0.1,2-0.4,3
		c-0.2,1-0.6,1.8-1,2.5l3.6,3.6l-2,1.8l-3.2-3.1c-0.9,1.1-2.1,2-3.6,2.5C430.7,237.4,429,237.7,427.1,237.7z M427.1,235.3
		c1.5,0,2.8-0.2,3.9-0.7c1.1-0.5,2-1.2,2.8-2.1l-7.2-7.4c-1.7,0.8-3,1.6-3.8,2.6c-0.8,0.9-1.2,2.1-1.2,3.5c0,1.4,0.5,2.4,1.6,3.1
		C424.2,235,425.5,235.3,427.1,235.3z M426.9,222.1c1.2-0.8,2.2-1.5,2.8-2.2c0.6-0.7,0.9-1.6,0.9-2.7c0-1-0.3-1.8-0.8-2.4
		c-0.5-0.6-1.4-0.9-2.7-0.9c-1.3,0-2.2,0.3-2.7,0.9c-0.6,0.6-0.9,1.4-0.9,2.3c0,0.8,0.3,1.6,0.9,2.3
		C425.1,220.2,425.9,221.1,426.9,222.1z"/>
	<path class="st0" d="M466.3,237.3v-25.5h3.2v25.5H466.3z"/>
	<path class="st0" d="M487.9,237.3v-22.9h-8.5v-2.6h20.2v2.6h-8.5v22.9H487.9z"/>
	<path class="st0" d="M528.4,230.6c-0.9,0-1.7-0.2-2.4-0.6c-0.7-0.4-1.3-1-1.7-1.7c-0.4-0.7-0.6-1.5-0.6-2.4c0-0.9,0.2-1.7,0.6-2.4
		c0.4-0.7,1-1.3,1.7-1.7c0.7-0.4,1.5-0.6,2.4-0.6c0.9,0,1.7,0.2,2.4,0.6c0.7,0.4,1.3,1,1.7,1.7c0.4,0.7,0.6,1.5,0.6,2.4
		c0,1.3-0.5,2.4-1.4,3.3C530.9,230.2,529.7,230.6,528.4,230.6z"/>
	<path class="st0" d="M558.9,237.3v-25.5h3.2v11.5h13.5v-11.5h3.2v25.5h-3.2v-11.5h-13.5v11.5H558.9z"/>
	<path class="st0" d="M598.6,237.3l-9.7-25.5h3.4l8.2,22.2l8.2-22.2h3.4l-9.7,25.5H598.6z"/>
	<path class="st0" d="M622.1,237.3v-25.5h3.2v22.9H639v2.5H622.1z"/>
</g>
</svg>
