<?xml version="1.0" encoding="UTF-8" standalone="no"?>
<!-- Created with Inkscape (http://www.inkscape.org/) -->

<svg
   version="1.1"
   id="svg1"
   width="849.91693"
   height="1116.3799"
   viewBox="0 0 849.91693 1116.3799"
   sodipodi:docname="logo-light.svg"
   inkscape:version="1.3.2 (091e20e, 2023-11-25, custom)"
   xmlns:inkscape="http://www.inkscape.org/namespaces/inkscape"
   xmlns:sodipodi="http://sodipodi.sourceforge.net/DTD/sodipodi-0.dtd"
   xmlns="http://www.w3.org/2000/svg"
   xmlns:svg="http://www.w3.org/2000/svg">
  <defs
     id="defs1">
    <clipPath
       clipPathUnits="userSpaceOnUse"
       id="clipPath11">
      <path
         d="M 0,5000 H 5000 V 0 H 0 Z"
         transform="translate(-881.9941,-1975.5197)"
         id="path11" />
    </clipPath>
    <clipPath
       clipPathUnits="userSpaceOnUse"
       id="clipPath13">
      <path
         d="M 0,5000 H 5000 V 0 H 0 Z"
         transform="translate(-664.62652,-1257.9098)"
         id="path13" />
    </clipPath>
    <clipPath
       clipPathUnits="userSpaceOnUse"
       id="clipPath15">
      <path
         d="M 0,5000 H 5000 V 0 H 0 Z"
         transform="translate(-1083.3042,-1212.9956)"
         id="path15" />
    </clipPath>
    <clipPath
       clipPathUnits="userSpaceOnUse"
       id="clipPath41">
      <path
         d="M 0,5000 H 5000 V 0 H 0 Z"
         transform="translate(-1108.7776,-1259.0442)"
         id="path41" />
    </clipPath>
    <clipPath
       clipPathUnits="userSpaceOnUse"
       id="clipPath20">
      <rect
         style="opacity:0.359926;fill:#4dc9ff;stroke-width:2.18156;stroke-dasharray:none;paint-order:markers stroke fill"
         id="rect20"
         width="520.19049"
         height="287.06195"
         x="-244.78593"
         y="-339.66037"
         transform="scale(1,-1)" />
    </clipPath>
  </defs>
  <sodipodi:namedview
     id="namedview1"
     pagecolor="#ffffff"
     bordercolor="#000000"
     borderopacity="0.25"
     inkscape:showpageshadow="2"
     inkscape:pageopacity="0.0"
     inkscape:pagecheckerboard="0"
     inkscape:deskcolor="#d1d1d1"
     inkscape:export-bgcolor="#ffffff00"
     inkscape:zoom="0.0625"
     inkscape:cx="2840"
     inkscape:cy="3488"
     inkscape:window-width="1440"
     inkscape:window-height="830"
     inkscape:window-x="-6"
     inkscape:window-y="-6"
     inkscape:window-maximized="1"
     inkscape:current-layer="layer-MC0" />
  <g
     id="layer-MC1"
     inkscape:groupmode="layer"
     inkscape:label="Tree Node Version"
     transform="translate(-712.32867,-4190.6406)">
    <path
       id="path10"
       d="m 0,0 c -57.095,0 -103.381,-46.285 -103.381,-103.381 0,-57.095 46.286,-103.38 103.381,-103.38 57.095,0 103.38,46.285 103.38,103.38 C 103.38,-46.285 57.095,0 0,0 m 0,-50.947 c 28.912,0 52.433,-23.522 52.433,-52.434 0,-28.912 -23.521,-52.433 -52.433,-52.433 -28.912,0 -52.433,23.521 -52.433,52.433 0,28.912 23.521,52.434 52.433,52.434"
       style="fill:#ffffff;fill-opacity:1;fill-rule:nonzero;stroke:none"
       transform="matrix(1.3333333,0,0,-1.3333333,1171.9921,4190.6404)"
       clip-path="url(#clipPath11)"
       inkscape:export-filename="icon.svg"
       inkscape:export-xdpi="96"
       inkscape:export-ydpi="96" />
    <path
       id="path12"
       d="m 0,0 c -57.095,0 -103.38,-46.285 -103.38,-103.38 0,-57.096 46.285,-103.381 103.38,-103.381 57.095,0 103.381,46.285 103.381,103.381 C 103.381,-46.285 57.095,0 0,0 m 0,-50.947 c 28.912,0 52.433,-23.521 52.433,-52.433 0,-28.912 -23.521,-52.434 -52.433,-52.434 -28.912,0 -52.433,23.522 -52.433,52.434 0,28.912 23.521,52.433 52.433,52.433"
       style="fill:#ffffff;fill-opacity:1;fill-rule:nonzero;stroke:none"
       transform="matrix(1.3333333,0,0,-1.3333333,850.16867,4901.4536)"
       clip-path="url(#clipPath13)" />
    <path
       id="path14"
       d="m 0,0 c -57.095,0 -103.38,-46.285 -103.38,-103.381 0,-57.095 46.285,-103.38 103.38,-103.38 57.095,0 103.38,46.285 103.38,103.38 C 103.38,-46.285 57.095,0 0,0 m 0,-50.947 c 28.912,0 52.433,-23.522 52.433,-52.434 0,-28.912 -23.521,-52.433 -52.433,-52.433 -28.912,0 -52.433,23.521 -52.433,52.433 0,28.912 23.521,52.434 52.433,52.434"
       style="fill:#ffffff;fill-opacity:1;fill-rule:nonzero;stroke:none"
       transform="matrix(1.3333333,0,0,-1.3333333,1424.4056,5031.3392)"
       clip-path="url(#clipPath15)" />
    <path
       id="path38"
       d="m 0,0 h -50.947 v 156.271 l 217.367,102.12 v 160.653 h 50.947 V 226.038 L 0,123.918 Z"
       style="fill:#ffffff;fill-opacity:1;fill-rule:nonzero;stroke:none;stroke-width:0.69633;stroke-dasharray:none;image-rendering:auto"
       transform="matrix(1.480914,0,0,-1.2892954,888.05429,4934.4697)"
       clip-path="url(#clipPath20)" />
    <path
       id="path40"
       d="M 0,0 H -50.947 V 71.673 L -341.471,215.587 -318.857,261.24 0,103.289 Z"
       style="fill:#ffffff;fill-opacity:1;fill-rule:nonzero;stroke:none"
       transform="matrix(1.4314119,0,0,-1.2270809,1461.8611,4998.87)"
       clip-path="url(#clipPath41)" />
  </g>
</svg>
