<?xml version="1.0" encoding="UTF-8" standalone="no"?>
<!-- Created with Inkscape (http://www.inkscape.org/) -->

<svg
   version="1.1"
   id="svg1"
   width="5041.4702"
   height="4220.1616"
   viewBox="0 0 5041.4702 4220.1616"
   sodipodi:docname="logo-light.svg"
   inkscape:version="1.3.2 (091e20e, 2023-11-25, custom)"
   xmlns:inkscape="http://www.inkscape.org/namespaces/inkscape"
   xmlns:sodipodi="http://sodipodi.sourceforge.net/DTD/sodipodi-0.dtd"
   xmlns="http://www.w3.org/2000/svg"
   xmlns:svg="http://www.w3.org/2000/svg">
  <defs
     id="defs1">
    <clipPath
       clipPathUnits="userSpaceOnUse"
       id="clipPath3">
      <path
         d="M 0,5000 H 5000 V 0 H 0 Z"
         transform="translate(-1209.1089,-2973.7076)"
         id="path3" />
    </clipPath>
    <clipPath
       clipPathUnits="userSpaceOnUse"
       id="clipPath5">
      <path
         d="M 0,5000 H 5000 V 0 H 0 Z"
         transform="translate(-1658.8771,-2492.0975)"
         id="path5" />
    </clipPath>
    <clipPath
       clipPathUnits="userSpaceOnUse"
       id="clipPath7">
      <path
         d="M 0,5000 H 5000 V 0 H 0 Z"
         transform="translate(-2757.4266,-2492.0975)"
         id="path7" />
    </clipPath>
    <clipPath
       clipPathUnits="userSpaceOnUse"
       id="clipPath9">
      <path
         d="M 0,5000 H 5000 V 0 H 0 Z"
         transform="translate(-3818.1632,-3477.2093)"
         id="path9" />
    </clipPath>
    <clipPath
       clipPathUnits="userSpaceOnUse"
       id="clipPath11">
      <path
         d="M 0,5000 H 5000 V 0 H 0 Z"
         transform="translate(-881.9941,-1975.5197)"
         id="path11" />
    </clipPath>
    <clipPath
       clipPathUnits="userSpaceOnUse"
       id="clipPath13">
      <path
         d="M 0,5000 H 5000 V 0 H 0 Z"
         transform="translate(-664.62652,-1257.9098)"
         id="path13" />
    </clipPath>
    <clipPath
       clipPathUnits="userSpaceOnUse"
       id="clipPath15">
      <path
         d="M 0,5000 H 5000 V 0 H 0 Z"
         transform="translate(-1083.3042,-1212.9956)"
         id="path15" />
    </clipPath>
    <clipPath
       clipPathUnits="userSpaceOnUse"
       id="clipPath17">
      <path
         d="M 0,5000 H 5000 V 0 H 0 Z"
         transform="translate(-1974.5382,-1407.1925)"
         id="path17" />
    </clipPath>
    <clipPath
       clipPathUnits="userSpaceOnUse"
       id="clipPath21">
      <path
         d="M 0,5000 H 5000 V 0 H 0 Z"
         transform="translate(-3079.4205,-946.65352)"
         id="path21" />
    </clipPath>
    <clipPath
       clipPathUnits="userSpaceOnUse"
       id="clipPath23">
      <path
         d="M 0,5000 H 5000 V 0 H 0 Z"
         transform="translate(-2762.1834,-1089.4844)"
         id="path23" />
    </clipPath>
    <clipPath
       clipPathUnits="userSpaceOnUse"
       id="clipPath25">
      <path
         d="M 0,5000 H 5000 V 0 H 0 Z"
         transform="translate(-3420.3849,-1282.5201)"
         id="path25" />
    </clipPath>
    <clipPath
       clipPathUnits="userSpaceOnUse"
       id="clipPath37">
      <path
         d="M 0,5000 H 5000 V 0 H 0 Z"
         transform="translate(-1549.7643,-921.17085)"
         id="path37" />
    </clipPath>
    <clipPath
       clipPathUnits="userSpaceOnUse"
       id="clipPath39">
      <path
         d="M 0,5000 H 5000 V 0 H 0 Z"
         transform="translate(-690.10012,-1303.812)"
         id="path39" />
    </clipPath>
    <clipPath
       clipPathUnits="userSpaceOnUse"
       id="clipPath41">
      <path
         d="M 0,5000 H 5000 V 0 H 0 Z"
         transform="translate(-1108.7776,-1259.0442)"
         id="path41" />
    </clipPath>
    <clipPath
       clipPathUnits="userSpaceOnUse"
       id="clipPath43">
      <path
         d="M 0,5000 H 5000 V 0 H 0 Z"
         transform="translate(0,2.5000001e-5)"
         id="path43" />
    </clipPath>
    <clipPath
       clipPathUnits="userSpaceOnUse"
       id="clipPath45">
      <path
         d="M 0,5000 H 5000 V 0 H 0 Z"
         transform="translate(0,2.5000001e-5)"
         id="path45" />
    </clipPath>
    <clipPath
       clipPathUnits="userSpaceOnUse"
       id="clipPath49">
      <path
         d="M 0,5000 H 5000 V 0 H 0 Z"
         transform="translate(-1575.2379,-1526.3643)"
         id="path49" />
    </clipPath>
    <clipPath
       clipPathUnits="userSpaceOnUse"
       id="clipPath51">
      <path
         d="M 0,5000 H 5000 V 0 H 0 Z"
         transform="translate(0,2.5000001e-5)"
         id="path51" />
    </clipPath>
    <clipPath
       clipPathUnits="userSpaceOnUse"
       id="clipPath55">
      <path
         d="M 0,5000 H 5000 V 0 H 0 Z"
         transform="translate(-3445.8587,-1327.4996)"
         id="path55" />
    </clipPath>
    <clipPath
       clipPathUnits="userSpaceOnUse"
       id="clipPath65">
      <path
         d="M 0,5000 H 5000 V 0 H 0 Z"
         transform="translate(-2530.7386,-3848.8673)"
         id="path65" />
    </clipPath>
    <clipPath
       clipPathUnits="userSpaceOnUse"
       id="clipPath67">
      <path
         d="M 0,5000 H 5000 V 0 H 0 Z"
         transform="translate(-881.9941,-3207.7323)"
         id="path67" />
    </clipPath>
    <clipPath
       clipPathUnits="userSpaceOnUse"
       id="clipPath69">
      <path
         d="M 0,5000 H 5000 V 0 H 0 Z"
         transform="translate(-3884.4027,-3730.4469)"
         id="path69" />
    </clipPath>
    <clipPath
       clipPathUnits="userSpaceOnUse"
       id="clipPath71">
      <path
         d="M 0,5000 H 5000 V 0 H 0 Z"
         transform="translate(-2000.0118,-3019.4039)"
         id="path71" />
    </clipPath>
    <clipPath
       clipPathUnits="userSpaceOnUse"
       id="clipPath73">
      <path
         d="M 0,5000 H 5000 V 0 H 0 Z"
         transform="translate(-3104.8941,-3019.4039)"
         id="path73" />
    </clipPath>
    <clipPath
       clipPathUnits="userSpaceOnUse"
       id="clipPath75">
      <path
         d="M 0,5000 H 5000 V 0 H 0 Z"
         transform="translate(-3350.0062,-3720.013)"
         id="path75" />
    </clipPath>
    <clipPath
       clipPathUnits="userSpaceOnUse"
       id="clipPath77">
      <path
         d="M 0,5000 H 5000 V 0 H 0 Z"
         transform="translate(-907.46732,-3253.2643)"
         id="path77" />
    </clipPath>
    <clipPath
       clipPathUnits="userSpaceOnUse"
       id="clipPath31-0">
      <path
         d="M 0,5000 H 5000 V 0 H 0 Z"
         transform="translate(-4335.3736,-1458.0027)"
         id="path31-5" />
    </clipPath>
    <clipPath
       clipPathUnits="userSpaceOnUse"
       id="clipPath59-7">
      <path
         d="M 0,5000 H 5000 V 0 H 0 Z"
         transform="translate(-4360.8468,-1502.7035)"
         id="path59-9" />
    </clipPath>
    <clipPath
       clipPathUnits="userSpaceOnUse"
       id="clipPath59-1">
      <path
         d="M 0,5000 H 5000 V 0 H 0 Z"
         transform="translate(-4360.8468,-1502.7035)"
         id="path59-2" />
    </clipPath>
    <clipPath
       clipPathUnits="userSpaceOnUse"
       id="clipPath31-8">
      <path
         d="M 0,5000 H 5000 V 0 H 0 Z"
         transform="translate(-4335.3736,-1458.0027)"
         id="path31-0" />
    </clipPath>
    <clipPath
       clipPathUnits="userSpaceOnUse"
       id="clipPath45-4">
      <path
         d="M 0,5000 H 5000 V 0 H 0 Z"
         transform="translate(0,2.5000001e-5)"
         id="path45-6" />
    </clipPath>
    <clipPath
       clipPathUnits="userSpaceOnUse"
       id="clipPath31-8-0">
      <path
         d="M 0,5000 H 5000 V 0 H 0 Z"
         transform="translate(-4335.3736,-1458.0027)"
         id="path31-0-8" />
    </clipPath>
    <clipPath
       clipPathUnits="userSpaceOnUse"
       id="clipPath49-5">
      <path
         d="M 0,5000 H 5000 V 0 H 0 Z"
         transform="translate(-1575.2379,-1526.3643)"
         id="path49-9" />
    </clipPath>
    <clipPath
       clipPathUnits="userSpaceOnUse"
       id="clipPath43-9">
      <path
         d="M 0,5000 H 5000 V 0 H 0 Z"
         transform="translate(0,2.5000001e-5)"
         id="path43-0" />
    </clipPath>
    <clipPath
       clipPathUnits="userSpaceOnUse"
       id="clipPath45-3">
      <path
         d="M 0,5000 H 5000 V 0 H 0 Z"
         transform="translate(0,2.5000001e-5)"
         id="path45-2" />
    </clipPath>
  </defs>
  <sodipodi:namedview
     id="namedview1"
     pagecolor="#ffffff"
     bordercolor="#000000"
     borderopacity="0.25"
     inkscape:showpageshadow="2"
     inkscape:pageopacity="0.0"
     inkscape:pagecheckerboard="0"
     inkscape:deskcolor="#d1d1d1"
     inkscape:export-bgcolor="#ffffff00"
     inkscape:zoom="0.0625"
     inkscape:cx="2840"
     inkscape:cy="3488"
     inkscape:window-width="1440"
     inkscape:window-height="830"
     inkscape:window-x="-6"
     inkscape:window-y="-6"
     inkscape:window-maximized="1"
     inkscape:current-layer="layer-MC0" />
  <g
     id="layer-MC0"
     inkscape:groupmode="layer"
     inkscape:label="BACKGROUND"
     transform="translate(-748.32867,-1385.9296)">
    <path
       id="path48-7"
       d="M 0,0 H -50.947 V 85.26 L 389.948,259.295 408.653,211.907 0,50.599 Z"
       style="fill:#ffffff;fill-opacity:1;fill-rule:nonzero;stroke:none"
       transform="matrix(1.3333333,0,0,-1.3333333,3587.5121,4829.0764)"
       clip-path="url(#clipPath49-5)"
       inkscape:export-filename="logo-med-tekst.svg"
       inkscape:export-xdpi="96"
       inkscape:export-ydpi="96" />
    <text
       xml:space="preserve"
       style="display:inline;fill:#000000"
       x="2240.991"
       y="3795.0449"
       id="text83"><tspan
         sodipodi:role="line"
         id="tspan83"
         x="2240.991"
         y="3795.0449">li</tspan></text>
  </g>
  <g
     id="layer-MC1"
     inkscape:groupmode="layer"
     inkscape:label="Tree Node Version"
     transform="translate(-748.32867,-1385.9296)">
    <path
       id="path2"
       d="m 0,0 c 70.318,0 132.012,-15.921 185.082,-47.763 -6.634,-33.169 -17.248,-82.922 -31.842,-149.259 -59.704,35.822 -114.101,53.733 -163.191,53.733 -110.12,0 -187.736,-51.743 -232.845,-155.23 -9.287,-23.881 -13.931,-48.426 -13.931,-73.634 v -579.126 c -1.327,0 -2.653,-0.664 -3.98,-1.991 h -133.338 l -3.981,1.991 v 929.388 c 1.327,0 2.654,0.663 3.981,1.99 h 133.338 l 3.98,-1.99 v -81.595 c 29.189,39.802 72.308,68.327 129.359,85.575 C -84.912,-5.97 -42.456,0 0,0"
       style="fill:#4dc9ff;fill-opacity:1;fill-rule:nonzero;stroke:none"
       transform="matrix(1.3333333,0,0,-1.3333333,1612.1452,2701.7233)"
       clip-path="url(#clipPath3)" />
    <path
       id="path4"
       d="m 0,0 v -3.98 c 0,-94.199 35.159,-177.121 105.477,-248.766 63.684,-59.703 135.328,-89.555 214.933,-89.555 99.506,0 184.418,46.436 254.736,139.308 42.456,65.011 63.684,132.675 63.684,202.993 0,100.833 -37.149,187.735 -111.447,260.706 -62.357,53.07 -129.358,79.605 -201.003,79.605 H 310.459 C 232.181,340.311 158.547,306.479 89.556,238.815 29.852,168.497 0,88.892 0,0 m 306.479,481.61 h 25.872 c 102.16,0 199.012,-39.802 290.558,-119.407 C 727.722,261.37 780.129,140.635 780.129,0 c 0,-141.962 -55.06,-264.687 -165.181,-368.173 C 524.729,-442.471 426.55,-479.62 320.41,-479.62 c -115.427,0 -219.577,42.456 -312.45,127.368 -98.179,100.833 -147.269,216.924 -147.269,348.272 v 9.95 c 0,131.349 49.09,247.439 147.269,348.272 92.873,84.912 192.379,127.368 298.519,127.368"
       style="fill:#4dc9ff;fill-opacity:1;fill-rule:nonzero;stroke:none"
       transform="matrix(1.3333333,0,0,-1.3333333,2211.8361,3343.8701)"
       clip-path="url(#clipPath5)" />
    <path
       id="path6"
       d="m 0,0 v -3.98 c 0,-94.199 35.159,-177.121 105.477,-248.766 63.684,-59.703 135.328,-89.555 214.933,-89.555 99.506,0 184.418,46.436 254.736,139.308 42.456,65.011 63.684,132.675 63.684,202.993 0,100.833 -37.149,187.735 -111.447,260.706 -62.357,53.07 -129.358,79.605 -201.002,79.605 H 310.459 C 232.181,340.311 158.547,306.479 89.556,238.815 29.852,168.497 0,88.892 0,0 m 306.479,481.61 h 25.872 c 102.16,0 199.012,-39.802 290.558,-119.407 C 727.722,261.37 780.129,140.635 780.129,0 c 0,-141.962 -55.06,-264.687 -165.181,-368.173 C 524.729,-442.471 426.55,-479.62 320.41,-479.62 c -115.427,0 -219.577,42.456 -312.449,127.368 -98.18,100.833 -147.27,216.924 -147.27,348.272 v 9.95 c 0,131.349 49.09,247.439 147.27,348.272 92.872,84.912 192.378,127.368 298.518,127.368"
       style="fill:#4dc9ff;fill-opacity:1;fill-rule:nonzero;stroke:none"
       transform="matrix(1.3333333,0,0,-1.3333333,3676.5687,3343.8701)"
       clip-path="url(#clipPath7)" />
    <path
       id="path8"
       d="m 0,0 h 137.319 v -511.462 h 258.716 v -139.309 -1.99 H 137.319 v -545.294 c 0,-27.862 7.297,-53.07 21.891,-75.625 14.594,-18.574 33.169,-31.842 55.723,-39.802 10.614,-2.654 20.565,-3.981 29.852,-3.981 h 3.98 c 25.209,0 59.704,8.624 103.487,25.872 2.653,1.327 7.297,3.317 13.931,5.97 33.169,-74.297 51.743,-116.754 55.723,-127.368 -9.287,-5.306 -27.862,-12.604 -55.723,-21.891 -47.763,-14.594 -84.912,-21.891 -111.447,-21.891 h -15.921 c -35.822,0 -72.971,10.614 -111.447,31.842 -53.07,27.861 -89.556,68.991 -109.457,123.387 C 5.97,-1267.046 0,-1229.234 0,-1188.104 v 535.343 h -157.22 c 0,1.327 -0.663,1.99 -1.99,1.99 v 139.309 h 1.99 H 0 Z"
       style="fill:#4dc9ff;fill-opacity:1;fill-rule:nonzero;stroke:none"
       transform="matrix(1.3333333,0,0,-1.3333333,5090.8841,2030.3877)"
       clip-path="url(#clipPath9)" />
    <path
       id="path10"
       d="m 0,0 c -57.095,0 -103.381,-46.285 -103.381,-103.381 0,-57.095 46.286,-103.38 103.381,-103.38 57.095,0 103.38,46.285 103.38,103.38 C 103.38,-46.285 57.095,0 0,0 m 0,-50.947 c 28.912,0 52.433,-23.522 52.433,-52.434 0,-28.912 -23.521,-52.433 -52.433,-52.433 -28.912,0 -52.433,23.521 -52.433,52.433 0,28.912 23.521,52.434 52.433,52.434"
       style="fill:#ffffff;fill-opacity:1;fill-rule:nonzero;stroke:none"
       transform="matrix(1.3333333,0,0,-1.3333333,1175.9921,4032.6404)"
       clip-path="url(#clipPath11)" />
    <path
       id="path12"
       d="m 0,0 c -57.095,0 -103.38,-46.285 -103.38,-103.38 0,-57.096 46.285,-103.381 103.38,-103.381 57.095,0 103.381,46.285 103.381,103.381 C 103.381,-46.285 57.095,0 0,0 m 0,-50.947 c 28.912,0 52.433,-23.521 52.433,-52.433 0,-28.912 -23.521,-52.434 -52.433,-52.434 -28.912,0 -52.433,23.522 -52.433,52.434 0,28.912 23.521,52.433 52.433,52.433"
       style="fill:#ffffff;fill-opacity:1;fill-rule:nonzero;stroke:none"
       transform="matrix(1.3333333,0,0,-1.3333333,886.16867,4989.4536)"
       clip-path="url(#clipPath13)" />
    <path
       id="path14"
       d="m 0,0 c -57.095,0 -103.38,-46.285 -103.38,-103.381 0,-57.095 46.285,-103.38 103.38,-103.38 57.095,0 103.38,46.285 103.38,103.38 C 103.38,-46.285 57.095,0 0,0 m 0,-50.947 c 28.912,0 52.433,-23.522 52.433,-52.434 0,-28.912 -23.521,-52.433 -52.433,-52.433 -28.912,0 -52.433,23.521 -52.433,52.433 0,28.912 23.521,52.434 52.433,52.434"
       style="fill:#ffffff;fill-opacity:1;fill-rule:nonzero;stroke:none"
       transform="matrix(1.3333333,0,0,-1.3333333,1492.4056,5049.3392)"
       clip-path="url(#clipPath15)" />
    <path
       id="path16"
       d="m 0,0 c -57.095,0 -103.38,-46.285 -103.38,-103.38 0,-57.096 46.285,-103.381 103.38,-103.381 57.095,0 103.381,46.285 103.381,103.381 C 103.381,-46.285 57.095,0 0,0 m 0,-50.947 c 28.912,0 52.434,-23.521 52.434,-52.433 0,-28.912 -23.522,-52.433 -52.434,-52.433 -28.912,0 -52.433,23.521 -52.433,52.433 0,28.912 23.521,52.433 52.433,52.433"
       style="fill:#ffffff;fill-opacity:1;fill-rule:nonzero;stroke:none"
       transform="matrix(1.3333333,0,0,-1.3333333,2632.7175,5330.4101)"
       clip-path="url(#clipPath17)" />
    <path
       id="path20"
       d="m 0,0 c -57.095,0 -103.381,-46.285 -103.381,-103.381 0,-57.095 46.286,-103.38 103.381,-103.38 57.095,0 103.38,46.285 103.38,103.38 C 103.38,-46.285 57.095,0 0,0 m 0,-50.947 c 28.912,0 52.433,-23.522 52.433,-52.434 0,-28.912 -23.521,-52.433 -52.433,-52.433 -28.912,0 -52.434,23.521 -52.434,52.433 0,28.912 23.522,52.434 52.434,52.434"
       style="fill:#ffffff;fill-opacity:1;fill-rule:nonzero;stroke:none"
       transform="matrix(1.3333333,0,0,-1.3333333,4105.8939,5212.462)"
       clip-path="url(#clipPath21)" />
    <path
       id="path22"
       d="m 0,0 c -57.095,0 -103.38,-46.285 -103.38,-103.381 0,-57.095 46.285,-103.38 103.38,-103.38 57.095,0 103.38,46.285 103.38,103.38 C 103.38,-46.285 57.095,0 0,0 m 0,-50.947 c 28.912,0 52.433,-23.522 52.433,-52.434 0,-28.912 -23.521,-52.433 -52.433,-52.433 -28.912,0 -52.433,23.521 -52.433,52.433 0,28.912 23.521,52.434 52.433,52.434"
       style="fill:#ffffff;fill-opacity:1;fill-rule:nonzero;stroke:none"
       transform="matrix(1.3333333,0,0,-1.3333333,3553.5137,5041.4553)"
       clip-path="url(#clipPath23)" />
    <path
       id="path24"
       d="m 0,0 c -57.095,0 -103.38,-46.285 -103.38,-103.381 0,-57.095 46.285,-103.38 103.38,-103.38 57.095,0 103.38,46.285 103.38,103.38 C 103.38,-46.285 57.095,0 0,0 m 0,-50.947 c 28.912,0 52.433,-23.522 52.433,-52.434 0,-28.912 -23.521,-52.433 -52.433,-52.433 -28.912,0 -52.433,23.521 -52.433,52.433 0,28.912 23.521,52.434 52.433,52.434"
       style="fill:#ffffff;fill-opacity:1;fill-rule:nonzero;stroke:none"
       transform="matrix(1.3333333,0,0,-1.3333333,4560.5131,4722.6399)"
       clip-path="url(#clipPath25)" />
    <path
       id="path30-5"
       d="m 0,0 c -57.096,0 -103.381,-46.285 -103.381,-103.38 0,-57.096 46.285,-103.381 103.381,-103.381 57.095,0 103.38,46.285 103.38,103.381 C 103.38,-46.285 57.095,0 0,0 m 0,-50.947 c 28.912,0 52.433,-23.521 52.433,-52.433 0,-28.912 -23.521,-52.433 -52.433,-52.433 -28.912,0 -52.434,23.521 -52.434,52.433 0,28.912 23.522,52.433 52.434,52.433"
       style="fill:#ffffff;fill-opacity:1;fill-rule:nonzero;stroke:none"
       transform="matrix(-1.2642449,0,0,-1.3333333,5659.1001,5045.8955)"
       clip-path="url(#clipPath31-8)" />
    <path
       id="path30-5-5"
       d="m 0,0 c -57.096,0 -103.381,-46.285 -103.381,-103.38 0,-57.096 46.285,-103.381 103.381,-103.381 57.095,0 103.38,46.285 103.38,103.381 C 103.38,-46.285 57.095,0 0,0 m 0,-50.947 c 28.912,0 52.433,-23.521 52.433,-52.433 0,-28.912 -23.521,-52.433 -52.433,-52.433 -28.912,0 -52.434,23.521 -52.434,52.433 0,28.912 23.522,52.433 52.434,52.433"
       style="fill:#ffffff;fill-opacity:1;fill-rule:nonzero;stroke:none"
       transform="matrix(-1.2642449,0,0,-1.3333333,5289.2181,4753.2225)"
       clip-path="url(#clipPath31-8-0)" />
    <path
       id="path36"
       d="m 0,0 c -57.095,0 -103.38,-46.285 -103.38,-103.38 0,-57.096 46.285,-103.381 103.38,-103.381 57.095,0 103.38,46.285 103.38,103.381 C 103.38,-46.285 57.095,0 0,0 m 0,-50.947 c 28.912,0 52.433,-23.521 52.433,-52.433 0,-28.912 -23.521,-52.433 -52.433,-52.433 -28.912,0 -52.433,23.521 -52.433,52.433 0,28.912 23.521,52.433 52.433,52.433"
       style="fill:#ffffff;fill-opacity:1;fill-rule:nonzero;stroke:none"
       transform="matrix(1.3333333,0,0,-1.3333333,2148.816,4884.6243)"
       clip-path="url(#clipPath37)" />
    <path
       id="path38"
       d="m 0,0 h -50.947 v 156.271 l 217.367,102.12 v 160.653 h 50.947 V 226.038 L 0,123.918 Z"
       style="fill:#ffffff;fill-opacity:1;fill-rule:nonzero;stroke:none"
       transform="matrix(1.3333333,0,0,-1.3333333,920.13347,4928.2507)"
       clip-path="url(#clipPath39)" />
    <path
       id="path40"
       d="M 0,0 H -50.947 V 71.673 L -341.471,215.587 -318.857,261.24 0,103.289 Z"
       style="fill:#ffffff;fill-opacity:1;fill-rule:nonzero;stroke:none"
       transform="matrix(1.489982,0,0,-1.3333333,1531.8611,4987.9411)"
       clip-path="url(#clipPath41)" />
    <path
       id="path42"
       d="m 2000.012,1453.61 h -50.947 v 515.115 h 50.947 z"
       style="fill:#ffffff;fill-opacity:1;fill-rule:nonzero;stroke:none"
       transform="matrix(1.3333333,0,0,-2.377253,0,8721.8576)"
       clip-path="url(#clipPath43)" />
    <path
       id="path42-8"
       d="m 2000.012,1453.61 h -50.947 v 515.115 h 50.947 z"
       style="fill:#ffffff;fill-opacity:1;fill-rule:nonzero;stroke:none"
       transform="matrix(1.3333333,0,0,-0.47267476,920.77784,5649.0766)"
       clip-path="url(#clipPath43-9)" />
    <path
       id="path44"
       d="m 3104.894,992.003 h -50.947 v 976.723 h 50.947 z"
       style="fill:#ffffff;fill-opacity:1;fill-rule:nonzero;stroke:none"
       transform="matrix(1.3333333,0,0,-1.1281405,0,6261.4909)"
       clip-path="url(#clipPath45)" />
    <path
       id="path44-9"
       d="m 3104.894,992.003 h -50.947 v 976.723 h 50.947 z"
       style="fill:#ffffff;fill-opacity:1;fill-rule:nonzero;stroke:none"
       transform="matrix(1.4340769,0,0,-0.28598127,1242.5704,5264.8275)"
       clip-path="url(#clipPath45-3)" />
    <path
       id="path44-4"
       d="m 3104.894,992.003 h -50.947 v 976.723 h 50.947 z"
       style="fill:#ffffff;fill-opacity:1;fill-rule:nonzero;stroke:none"
       transform="matrix(1.3333333,0,0,-0.65738555,1182.0337,5335.5505)"
       clip-path="url(#clipPath45-4)" />
    <path
       id="path48"
       d="M 0,0 H -50.947 V 85.26 L 389.948,259.295 408.653,211.907 0,50.599 Z"
       style="fill:#ffffff;fill-opacity:1;fill-rule:nonzero;stroke:none"
       transform="matrix(1.1578682,0,0,-1.4201939,2172.0215,4673.5143)"
       clip-path="url(#clipPath49)" />
    <path
       id="path50"
       d="m 1575.238,967.949 h -50.947 v 261.033 h 50.947 z"
       style="fill:#ffffff;fill-opacity:1;fill-rule:nonzero;stroke:none"
       transform="matrix(1.3333333,0,0,-1.0420377,80.61585,5833.0497)"
       clip-path="url(#clipPath51)" />
    <path
       id="path54"
       d="m 0,0 h -50.947 v 81.975 l -322.508,92.401 14.034,48.977 L 0,120.374 Z"
       style="fill:#ffffff;fill-opacity:1;fill-rule:nonzero;stroke:none"
       transform="matrix(1.3333333,0,0,-1.3333333,4594.4781,4662.6673)"
       clip-path="url(#clipPath55)" />
    <path
       id="path64"
       d="m 0,0 c -57.095,0 -103.38,-46.285 -103.38,-103.38 0,-57.096 46.285,-103.381 103.38,-103.381 57.095,0 103.38,46.285 103.38,103.381 C 103.38,-46.285 57.095,0 0,0 m 0,-50.947 c 28.912,0 52.433,-23.522 52.433,-52.433 0,-28.912 -23.521,-52.434 -52.433,-52.434 -28.912,0 -52.433,23.522 -52.433,52.434 0,28.911 23.521,52.433 52.433,52.433"
       style="fill:#ffffff;fill-opacity:1;fill-rule:nonzero;stroke:none"
       transform="matrix(1.3333333,0,0,-1.3333333,3374.318,1534.8437)"
       clip-path="url(#clipPath65)" />
    <path
       id="path66"
       d="m 0,0 c -57.095,0 -103.381,-46.285 -103.381,-103.38 0,-57.096 46.286,-103.381 103.381,-103.381 57.095,0 103.38,46.285 103.38,103.381 C 103.38,-46.285 57.095,0 0,0 m 0,-50.947 c 28.912,0 52.433,-23.521 52.433,-52.433 0,-28.912 -23.521,-52.433 -52.433,-52.433 -28.912,0 -52.433,23.521 -52.433,52.433 0,28.912 23.521,52.433 52.433,52.433"
       style="fill:#ffffff;fill-opacity:1;fill-rule:nonzero;stroke:none"
       transform="matrix(1.3333333,0,0,-1.3333333,1175.9921,2389.6904)"
       clip-path="url(#clipPath67)" />
    <path
       id="path68"
       d="m 0,0 c -57.095,0 -103.38,-46.285 -103.38,-103.381 0,-57.095 46.285,-103.38 103.38,-103.38 57.095,0 103.38,46.285 103.38,103.38 C 103.38,-46.285 57.095,0 0,0 m 0,-50.947 c 28.912,0 52.433,-23.522 52.433,-52.434 0,-28.911 -23.521,-52.433 -52.433,-52.433 -28.912,0 -52.433,23.522 -52.433,52.433 0,28.912 23.521,52.434 52.433,52.434"
       style="fill:#ffffff;fill-opacity:1;fill-rule:nonzero;stroke:none"
       transform="matrix(1.3333333,0,0,-1.3333333,5179.2035,1692.7376)"
       clip-path="url(#clipPath69)" />
    <path
       id="path70"
       d="m 0,0 h -50.947 v 160.425 l 556.201,288.51 V 578.51 h 50.947 V 417.969 L 0,129.458 Z"
       style="fill:#ffffff;fill-opacity:1;fill-rule:nonzero;stroke:none"
       transform="matrix(1.3333333,0,0,-1.3333333,2666.6823,2640.7949)"
       clip-path="url(#clipPath71)" />
    <path
       id="path72"
       d="m 0,0 h -50.947 v 133.574 l -534.93,277.261 23.444,45.233 L 0,164.552 Z"
       style="fill:#ffffff;fill-opacity:1;fill-rule:nonzero;stroke:none"
       transform="matrix(1.3333333,0,0,-1.3333333,4139.8587,2640.7949)"
       clip-path="url(#clipPath73)" />
    <path
       id="path74"
       d="M 0,0 H -668.757 V 50.947 H -21.51 L 163.004,240.54 H 559.87 V 55.699 H 508.923 V 189.593 H 184.514 Z"
       style="fill:#ffffff;fill-opacity:1;fill-rule:nonzero;stroke:none"
       transform="matrix(1.3333333,0,0,-1.3333333,4466.6748,1706.6495)"
       clip-path="url(#clipPath75)" />
    <path
       id="path76"
       d="M 0,0 H -50.947 V 164.806 L 88.28,304.033 h 490.687 l 211.244,211.244 h 683.403 V 464.33 h -662.3 L 600.07,253.086 H 109.384 L 0,143.702 Z"
       style="fill:#ffffff;fill-opacity:1;fill-rule:nonzero;stroke:none"
       transform="matrix(1.3333333,0,0,-1.3333333,1209.9564,2328.9811)"
       clip-path="url(#clipPath77)" />
    <path
       id="path30-2"
       d="m 0,0 c -57.096,0 -103.381,-46.285 -103.381,-103.38 0,-57.096 46.285,-103.381 103.381,-103.381 57.095,0 103.38,46.285 103.38,103.381 C 103.38,-46.285 57.095,0 0,0 m 0,-50.947 c 28.912,0 52.433,-23.521 52.433,-52.433 0,-28.912 -23.521,-52.433 -52.433,-52.433 -28.912,0 -52.434,23.521 -52.434,52.433 0,28.912 23.522,52.433 52.434,52.433"
       style="fill:#ffffff;fill-opacity:1;fill-rule:nonzero;stroke:none"
       transform="matrix(1.3333333,0,0,-1.3333333,3001.2581,4682.2648)"
       clip-path="url(#clipPath31-0)" />
    <path
       id="path58-5"
       d="M 0,0 H -50.947 V 187.785 L -306.91,289.568 -288.084,336.91 0,222.353 Z"
       style="fill:#ffffff;fill-opacity:1;fill-rule:nonzero;stroke:none"
       transform="matrix(1.3333333,0,0,-1.3333333,3035.2224,4618.6638)"
       clip-path="url(#clipPath59-7)" />
    <path
       id="path58"
       d="M 0,0 H -50.947 V 187.785 L -306.91,289.568 -288.084,336.91 0,222.353 Z"
       style="fill:#ffffff;fill-opacity:1;fill-rule:nonzero;stroke:none"
       transform="matrix(1.4342374,0,0,-1.3333333,5695.2361,4856.6453)"
       clip-path="url(#clipPath59-1)" />
  </g>
</svg>
